<svg width="2593" height="909" xmlns="http://www.w3.org/2000/svg" xmlns:xlink="http://www.w3.org/1999/xlink" xml:space="preserve" overflow="hidden"><defs><clipPath id="clip0"><rect x="327" y="1150" width="2593" height="909"/></clipPath></defs><g clip-path="url(#clip0)" transform="translate(-327 -1150)"><path d="M334 1306.17C334 1223.79 400.786 1157 483.17 1157L2763.83 1157C2846.21 1157 2913 1223.79 2913 1306.17L2913 1902.83C2913 1985.21 2846.21 2052 2763.83 2052L483.17 2052C400.786 2052 334 1985.21 334 1902.83Z" stroke="#000000" stroke-width="13.75" stroke-miterlimit="8" fill="#FFFFFF" fill-rule="evenodd"/><rect x="987.5" y="1649.5" width="251" height="125" stroke="#A75F0A" stroke-width="4.58333" stroke-miterlimit="8" fill="#FF0000" fill-opacity="0.8"/><text font-family="Calibri,Calibri_MSFontService,sans-serif" font-weight="400" font-size="50" transform="matrix(1 0 0 1 1031.65 1728)">severity</text><rect x="1508.5" y="1649.5" width="251" height="124" stroke="#A75F0A" stroke-width="4.58333" stroke-miterlimit="8" fill="#00B050" fill-opacity="0.8"/><text font-family="Calibri,Calibri_MSFontService,sans-serif" font-weight="400" font-size="50" transform="matrix(1 0 0 1 1586.1 1698)">Item </text><text font-family="Calibri,Calibri_MSFontService,sans-serif" font-weight="400" font-size="50" transform="matrix(1 0 0 1 1548.56 1759)">affected</text><rect x="1246.5" y="1652.5" width="251" height="125" stroke="#A75F0A" stroke-width="4.58333" stroke-miterlimit="8" fill="#00B0F0" fill-opacity="0.8"/><text font-family="Calibri,Calibri_MSFontService,sans-serif" font-weight="400" font-size="48" transform="matrix(1 0 0 1 1304.58 1730)">impact</text><rect x="2036.5" y="1649.5" width="250" height="125" stroke="#A75F0A" stroke-width="4.58333" stroke-miterlimit="8" fill="#F3B56C" fill-opacity="0.8"/><text font-family="Calibri,Calibri_MSFontService,sans-serif" font-weight="400" font-size="50" transform="matrix(1 0 0 1 2107.08 1698)">Place </text><text font-family="Calibri,Calibri_MSFontService,sans-serif" font-weight="400" font-size="50" transform="matrix(1 0 0 1 2103.07 1759)">name</text><rect x="1773.5" y="1649.5" width="249" height="126" stroke="#A75F0A" stroke-width="4.58333" stroke-miterlimit="8" fill="#7030A0" fill-opacity="0.8"/><text font-family="Calibri,Calibri_MSFontService,sans-serif" font-weight="400" font-size="50" transform="matrix(1 0 0 1 1810.66 1698)">Location </text><text font-family="Calibri,Calibri_MSFontService,sans-serif" font-weight="400" font-size="50" transform="matrix(1 0 0 1 1810.39 1759)">modifier</text><text font-family="Verdana,Verdana_MSFontService,sans-serif" font-weight="400" font-size="32" transform="matrix(1 0 0 1 929.55 1951)">place name </text><text font-family="Verdana,Verdana_MSFontService,sans-serif" font-weight="400" font-size="32" transform="matrix(1 0 0 1 1125.49 1951)">-</text><text font-family="Verdana,Verdana_MSFontService,sans-serif" font-weight="400" font-size="32" transform="matrix(1 0 0 1 1151.27 1951)">impact</text><text font-family="Verdana,Verdana_MSFontService,sans-serif" font-weight="400" font-size="32" transform="matrix(1 0 0 1 1291.38 1954)">item affected </text><text font-family="Verdana,Verdana_MSFontService,sans-serif" font-weight="400" font-size="32" transform="matrix(1 0 0 1 1514.81 1954)">-</text><text font-family="Verdana,Verdana_MSFontService,sans-serif" font-weight="400" font-size="32" transform="matrix(1 0 0 1 1540.59 1954)">impact</text><text font-family="Verdana,Verdana_MSFontService,sans-serif" font-weight="400" font-size="32" transform="matrix(1 0 0 1 1693.56 1955)">Severity </text><text font-family="Verdana,Verdana_MSFontService,sans-serif" font-weight="400" font-size="32" transform="matrix(1 0 0 1 1837.36 1955)">-</text><text font-family="Verdana,Verdana_MSFontService,sans-serif" font-weight="400" font-size="32" transform="matrix(1 0 0 1 1863.14 1955)">impact</text><text font-family="Verdana,Verdana_MSFontService,sans-serif" font-weight="400" font-size="32" transform="matrix(1 0 0 1 2086.93 1954)">Place name  </text><text font-family="Verdana,Verdana_MSFontService,sans-serif" font-weight="400" font-size="32" transform="matrix(1 0 0 1 2293.75 1954)">-</text><text font-family="Verdana,Verdana_MSFontService,sans-serif" font-weight="400" font-size="32" transform="matrix(1 0 0 1 2058.85 1992)">Location modifier </text><path d="M1327 1886.13 1555.85 1886.13 1555.85 1899.88 1327 1899.88ZM1548.98 1872.38 1590.23 1893 1548.98 1913.63Z" fill="#7F7F7F"/><path d="M961 1887.13 1189.85 1887.13 1189.85 1900.88 961 1900.88ZM1182.98 1873.38 1224.23 1894 1182.98 1914.63Z" fill="#00B0F0"/><path d="M1700 1884.13 1928.85 1884.13 1928.85 1897.88 1700 1897.88ZM1921.98 1870.38 1963.23 1891 1921.98 1911.63Z" fill="#92D050"/><path d="M2064 1887.13 2292.85 1887.13 2292.85 1900.88 2064 1900.88ZM2285.98 1873.38 2327.23 1894 2285.98 1914.63Z" fill="#AB620E"/><rect x="429.5" y="1416.5" width="199" height="88" stroke="#A75F0A" stroke-width="4.58333" stroke-miterlimit="8" fill="#FF0000" fill-opacity="0.8"/><text font-family="Calibri,Calibri_MSFontService,sans-serif" font-weight="400" font-size="83" transform="matrix(1 0 0 1 461.622 1487)">180</text><rect x="647.5" y="1417.5" width="240" height="89" stroke="#A75F0A" stroke-width="4.58333" stroke-miterlimit="8" fill="#00B0F0" fill-opacity="0.8"/><text font-family="Calibri,Calibri_MSFontService,sans-serif" font-weight="400" font-size="83" transform="matrix(1 0 0 1 680.052 1489)">dead</text><rect x="1598.5" y="1417.5" width="435" height="89" stroke="#A75F0A" stroke-width="4.58333" stroke-miterlimit="8" fill="#00B0F0" fill-opacity="0.796078"/><text font-family="Calibri,Calibri_MSFontService,sans-serif" font-weight="400" font-size="83" transform="matrix(1 0 0 1 1631.27 1489)">wash away</text><rect x="2048.5" y="1419.5" width="325" height="89" stroke="#A75F0A" stroke-width="4.58333" stroke-miterlimit="8" fill="#00B050" fill-opacity="0.8"/><text font-family="Calibri,Calibri_MSFontService,sans-serif" font-weight="400" font-size="83" transform="matrix(1 0 0 1 2096.89 1491)">homes</text><rect x="2387.5" y="1418.5" width="157" height="88.9996" stroke="#A75F0A" stroke-width="4.58333" stroke-miterlimit="8" fill="#7030A0" fill-opacity="0.8"/><text font-family="Calibri,Calibri_MSFontService,sans-serif" font-weight="400" font-size="83" transform="matrix(1 0 0 1 2433.93 1490)">in</text><rect x="2554.5" y="1421.5" width="276" height="88" stroke="#A75F0A" stroke-width="4.58333" stroke-miterlimit="8" fill="#F3B56C" fill-opacity="0.8"/><text font-family="Calibri,Calibri_MSFontService,sans-serif" font-weight="400" font-size="83" transform="matrix(1 0 0 1 2593.73 1492)">Nepal</text><rect x="1302" y="1419" width="367" height="84.9999" fill="#0D171F" fill-opacity="0"/><text font-family="Calibri,Calibri_MSFontService,sans-serif" font-weight="400" font-size="83" transform="matrix(1 0 0 1 1335.06 1489)">; floods</text><rect x="1056.5" y="1417.5" width="276" height="88" stroke="#A75F0A" stroke-width="4.58333" stroke-miterlimit="8" fill="#F3B56C" fill-opacity="0.8"/><text font-family="Calibri,Calibri_MSFontService,sans-serif" font-weight="400" font-size="83" transform="matrix(1 0 0 1 1110.76 1488)">India</text><rect x="894.5" y="1416.5" width="158" height="89" stroke="#A75F0A" stroke-width="4.58333" stroke-miterlimit="8" fill="#7030A0" fill-opacity="0.8"/><text font-family="Calibri,Calibri_MSFontService,sans-serif" font-weight="400" font-size="83" transform="matrix(1 0 0 1 941.725 1488)">in</text><path d="M0.607493 6.84811-7.14251 7.53561-6.00573 7.33755-13.6307 9.33755-12.7048 9.02276-20.2673 12.2103-19.4299 11.7879-26.8049 16.1629-26.1416 15.7153-33.2666 21.1528-32.74 20.7074-39.5525 27.0824-39.1288 26.6493-45.5663 33.8368-45.1721 33.3544-51.1721 41.417-50.8856 41.0008-56.4481 49.7508-56.1929 49.3147-61.1929 58.6272-60.9791 58.193-65.4166 68.068-65.2264 67.5995-68.9764 77.912-68.8212 77.4306-71.8212 88.0556-71.696 87.5358-73.8835 98.4733-73.8025 97.973-75.1775 109.035-75.1319 108.494-75.6319 119.682-75.6319 119.068-75.1319 130.256-75.1775 129.715-73.8025 140.777-73.891 140.24-71.641 151.177-71.7689 150.658-68.7064 161.283-68.8641 160.804-65.0516 171.116-65.2291 170.682-60.7916 180.557-61.0223 180.091-55.9598 189.404-56.2169 188.97-50.5919 197.72-50.9006 197.279-44.7756 205.341-45.1729 204.864-38.6104 212.052-39.8307 210.996-26.778 219.842-34.4916 231.224-48.2168 221.923-55.5365 213.906-62.0124 205.382-67.9196 196.193-73.2269 186.43-77.8671 176.104-81.8486 165.334-85.0551 154.21-87.4139 142.743-88.856 131.141-89.3819 119.375-88.856 107.609-87.4162 96.0254-85.1265 84.5769-81.9851 73.4508-78.0621 62.6628-73.4217 52.3362-68.1875 42.5876-62.3538 33.4108-56.0167 24.8954-49.1689 17.2498-41.8829 10.4317-34.1648 4.54159-26.0409-0.277695-17.5935-3.83816-8.93422-6.10945-0.607493-6.84811ZM-29.0916 203.847 1.12238 238.691-44.8808 241.956Z" fill="#92D050" transform="matrix(1.83697e-16 1 1 -1.83697e-16 528 1416)"/><path d="M0.552641 6.85275-7.19736 7.47775-6.10833 7.30112-13.7333 9.17612-12.8857 8.90853-20.4482 11.846-19.6204 11.4593-26.9954 15.5218-26.3633 15.1276-33.4883 20.1276-32.9476 19.7064-39.7601 25.5814-39.2748 25.1198-45.7123 31.8698-45.3366 31.4417-51.3366 38.8792-51.0286 38.4667-56.5911 46.5292-56.3022 46.073-61.3022 54.698-61.0673 54.2567-65.5048 63.3817-65.2871 62.885-69.0371 72.4475-68.8594 71.9359-71.8594 81.8109-71.7194 81.273-73.9069 91.3354-73.811 90.7891-75.186 101.039-75.133 100.456-75.633 110.831-75.6331 110.167-75.1331 120.48-75.186 119.898-73.811 130.148-73.9137 129.571-71.6637 139.696-71.8085 139.151-68.746 149.026-68.9321 148.502-65.1196 158.002-65.3173 157.556-60.8798 166.681-61.1334 166.207-56.0709 174.832-56.3474 174.399-50.7224 182.524-51.068 182.067-44.943 189.505-45.32 189.083-38.82 195.771-40.1413 194.711-27.4023 202.567-34.6197 214.27-48.0851 205.966-55.3772 198.464-61.8643 190.587-67.799 182.014-73.1277 172.936-77.7895 163.35-81.7965 153.365-85.0251 142.954-87.4 132.267-88.8528 121.437-89.383 110.501-88.8529 99.5014-87.4021 88.6858-85.0965 78.0802-81.9369 67.6798-77.9889 57.6124-73.3233 48.0184-68.0623 38.9432-62.2001 30.4463-55.8594 22.5865-48.9938 15.3876-41.6676 9.06953-33.9563 3.65815-25.8536-0.805243-17.4491-4.06978-8.85426-6.18327-0.552641-6.85275ZM-29.9369 186.704 1.02313 220.887-44.8987 225.145Z" fill="#AB620E" transform="matrix(1.83697e-16 1 1 -1.83697e-16 973 1416)"/><path d="M0.552641 6.85275-7.19736 7.47775-6.05688 7.28825-13.6819 9.22575-12.7945 8.93482-20.357 11.9973-19.5815 11.6252-26.9565 15.7502-26.298 15.3312-33.423 20.4562-32.8671 20.0108-39.6796 26.0733-39.2316 25.6366-45.6691 32.5116-45.2846 32.0639-51.2846 39.6889-50.9738 39.261-56.5363 47.5735-56.2602 47.1245-61.2602 55.9996-61.036 55.5663-65.4735 64.9413-65.2655 64.4543-69.0155 74.2668-68.8458 73.7656-71.8458 83.8906-71.7104 83.3559-73.8979 93.7309-73.8082 93.2052-75.1832 103.705-75.1326 103.136-75.6326 113.761-75.6326 113.114-75.1326 123.739-75.1885 123.13-73.751 133.63-73.8522 133.067-71.5397 143.442-71.6808 142.91-68.5558 153.035-68.7306 152.537-64.8556 162.35-65.0682 161.867-60.5057 171.242-60.7521 170.781-55.5646 179.656-55.8459 179.214-50.0959 187.526-50.4329 187.079-44.1829 194.704-44.5719 194.269-37.8844 201.144-38.3345 200.721-31.272 206.783-33.2463 205.597-26.6023 208.195-31.6096 221.001-39.3416 217.977-47.5251 210.953-54.6318 203.647-61.2447 195.579-67.3032 186.821-72.7549 177.494-77.5474 167.646-81.6164 157.342-84.9004 146.702-87.3351 135.779-88.853 124.692-89.3826 113.438-88.854 102.204-87.4072 91.1552-85.1077 80.249-81.954 69.6055-78.0149 59.2982-73.3596 49.4631-68.1104 40.1457-62.254 31.3941-55.9078 23.329-49.0544 16.0099-41.7415 9.50208-34.0097 3.9406-25.9174-0.585573-17.5217-3.98549-8.88087-6.18112-0.552641-6.85275ZM-28.1901 192.877 3.01814 226.832-42.8715 231.426Z" fill="#AB620E" transform="matrix(1.83697e-16 1 1 -1.83697e-16 2465 1418)"/><path d="M0.552641 6.85275-3.32236 7.16525-2.46415 7.04118-6.33915 7.85368-5.41755 7.59225-9.23005 8.96725-8.44778 8.62896-12.2603 10.5665-11.7399 10.2729-15.5524 12.6479-14.9479 12.2247-18.698 15.1622-18.2958 14.8215-21.9833 18.1965-21.6833 17.9047-25.3708 21.7172-25.0437 21.354-28.6062 25.604-28.4014 25.3474-31.9639 30.0349-31.7498 29.737-35.1873 34.7995-35.0337 34.5631-38.4087 40.0006-38.1988 39.6382-44.6363 51.5757-44.4197 51.1374-50.4197 64.4499-50.2758 64.106-55.8383 78.481-55.7095 78.1184-60.7095 93.5559-60.6161 93.2421-65.0536 109.555-64.9739 109.231-68.7239 126.231-68.6607 125.908-71.6607 143.47-71.6127 143.142-73.8002 161.142-73.7693 160.827-75.1443 179.14-75.1275 178.811-75.6275 197.311-75.6275 196.939-75.1275 215.376-75.1443 215.048-73.7693 233.36-73.8057 233.002-71.4932 251.064-71.5397 250.756-68.4772 268.319-68.5469 267.972-64.6719 284.972-64.7476 284.672-60.2476 300.984-60.3528 300.638-55.2278 316.013-55.3534 315.668-49.6659 330.105-49.8333 329.716-43.6457 342.966-43.8637 342.539-37.2387 354.476-37.4389 354.139-34.0014 359.576-34.1901 359.293-30.6276 364.356-31.7706 363.097-22.663 370.919-31.6219 381.35-41.3794 372.97-45.5328 367.067-49.1661 361.32-56.0027 349.001-62.3814 335.342-68.214 320.536-73.4544 304.815-78.0436 288.179-81.9924 270.855-85.1121 252.965-87.4672 234.569-88.868 215.913-89.3775 197.125-88.868 178.275-87.4689 159.64-85.2423 141.318-82.1866 123.43-78.3652 106.106-73.841 89.4749-68.7312 73.6985-63.0319 58.9701-56.8548 45.2646-50.2018 32.9274-46.6419 27.1921-43.0222 21.8612-39.2493 16.8968-35.4242 12.3336-31.4211 8.19484-27.3847 4.50045-23.1362 1.17249-18.7563-1.55598-14.2966-3.8224-9.63078-5.50515-4.86067-6.50533-0.552641-6.85275ZM-22.1609 354.973 2.11014 394.188-43.825 390.076Z" fill="#7F7F7F" transform="matrix(1.83697e-16 1 1 -1.83697e-16 1816 1417)"/><path d="M773.853 1505.82 774.165 1509.69 773.995 1508.63 774.932 1512.5 774.648 1511.6 776.148 1515.42 775.797 1514.66 777.859 1518.48 777.475 1517.85 780.1 1521.66 779.719 1521.16 782.844 1524.91 782.465 1524.49 786.09 1528.18 785.731 1527.84 789.918 1531.52 789.606 1531.27 794.169 1534.83 793.894 1534.62 798.956 1538.19 798.644 1537.98 804.144 1541.42 803.924 1541.29 809.799 1544.66 809.522 1544.51 815.834 1547.76 815.645 1547.67 822.333 1550.85 822.023 1550.71 836.398 1556.71 836.064 1556.58 851.626 1562.15 851.279 1562.03 868.029 1567.03 867.741 1566.95 885.366 1571.39 885.058 1571.32 903.495 1575.07 903.194 1575.02 922.256 1578.02 921.954 1577.98 941.454 1580.16 941.163 1580.14 960.976 1581.51 960.672 1581.5 980.672 1582 980.328 1582 1000.33 1581.5 1000.02 1581.51 1019.84 1580.14 1019.52 1580.17 1039.02 1577.92 1038.72 1577.96 1057.78 1574.9 1057.48 1574.95 1075.92 1571.14 1075.61 1571.21 1093.24 1566.71 1092.95 1566.79 1109.7 1561.73 1109.36 1561.84 1124.98 1556.22 1124.58 1556.37 1138.9 1550.19 1138.67 1550.29 1145.35 1547.1 1145.07 1547.25 1151.38 1543.87 1151.2 1543.97 1157.08 1540.6 1156.81 1540.76 1162.31 1537.26 1162 1537.47 1167.06 1533.84 1165.35 1535.6 1169.25 1529.81 1180.66 1537.47 1176.08 1544.3 1169.85 1548.76 1164.06 1552.44 1157.96 1555.95 1151.41 1559.45 1144.47 1562.76 1129.84 1569.08 1113.85 1574.84 1096.78 1580 1078.86 1584.57 1060.12 1588.45 1040.75 1591.56 1020.94 1593.84 1000.82 1595.24 980.5 1595.75 960.176 1595.24 940.066 1593.84 920.269 1591.62 900.905 1588.58 882.162 1584.76 864.239 1580.25 847.171 1575.16 831.267 1569.47 816.57 1563.34 809.634 1560.03 803.087 1556.66 796.964 1553.14 791.197 1549.54 785.841 1545.77 780.984 1541.98 776.458 1537.99 772.462 1533.93 768.954 1529.72 765.941 1525.34 763.505 1520.84 761.679 1516.2 760.503 1511.34 760.147 1506.92ZM1153.97 1527.95 1193.97 1505 1188.33 1550.77Z" fill="#00B0F0"/><path d="M1.06134-6.79258 6.05122-6.01291 11.575-3.38253 16.5852 0.53166 21.1901 5.42897 25.5019 11.4099 29.6428 18.3558 33.6468 26.1669 37.5324 34.9743 41.3826 44.7281 45.0862 55.3279 48.7108 66.7742 52.1955 79.0656 55.6043 92.0696 58.951 105.898 62.1035 120.4 65.1858 135.623 68.144 151.421 70.9095 167.825 73.6103 184.784 76.1229 202.309 78.5086 220.264 80.7066 238.665 82.7154 257.497 84.5365 276.65 87.6721 315.846 89.9307 356.061 91.3735 396.899 91.8755 438.125 91.3736 479.283 89.9937 520.116 87.7981 560.326 84.7876 599.525 82.9665 618.741 81.0215 637.501 78.8867 655.898 76.5637 673.917 74.1154 691.369 71.5406 708.325 68.8382 724.728 66.0059 740.526 62.9842 755.76 59.8981 770.246 56.6814 784.059 53.3955 797.076 49.9751 809.364 46.478 820.809 42.8461 831.386 39.0028 841.635 31.1375 854.107 19.507 846.773 26.9973 834.895 26.3752 836.148 29.9377 826.648 29.8727 826.83 33.4352 816.455 33.3626 816.678 36.8001 805.428 36.7518 805.594 40.1268 793.469 40.0841 793.63 43.3341 780.755 43.3042 780.878 46.4917 767.191 46.4634 767.317 49.5259 752.942 49.5064 753.037 52.5064 737.912 52.4829 738.037 55.2954 722.349 55.2789 722.445 57.9664 706.132 57.9529 706.218 60.5154 689.343 60.5042 689.42 62.9417 672.045 62.9314 672.121 65.2439 654.183 65.2333 654.27 67.3583 635.958 67.3492 636.041 69.2867 617.354 69.2807 617.414 71.0932 598.289 71.0827 598.411 74.0827 559.349 74.0727 559.5 76.2602 519.438 76.2539 519.58 77.6289 478.893 77.6255 479.041 78.1255 438.041 78.1255 438.209 77.6255 397.146 77.6293 397.305 76.1918 356.618 76.1983 356.76 73.9483 316.698 73.9594 316.861 70.8344 277.798 70.8434 277.901 69.0309 258.838 69.0388 258.917 67.0388 240.167 67.0485 240.253 64.861 221.94 64.8724 222.03 62.4974 204.155 62.5071 204.226 60.0071 186.788 60.0231 186.894 57.3356 170.019 57.3457 170.08 54.5957 153.768 54.6174 153.89 51.6799 138.203 51.6992 138.302 48.6367 123.177 48.6569 123.273 45.5319 108.898 45.5679 109.055 42.2554 95.3671 42.2872 95.4933 38.9122 82.6183 38.9482 82.7502 35.5107 70.6252 35.5708 70.8255 32.0083 59.5755 32.0723 59.7677 28.4473 49.3927 28.5427 49.6493 24.7927 40.1493 24.8974 40.4 21.1474 31.9 21.3195 32.2611 17.507 24.8236 17.7197 25.2079 13.8447 18.7079 14.1732 19.208 10.2982 13.833 10.8664 14.522 6.92893 10.3345 7.70495 11.0427 3.70495 7.91767 4.98171 8.70717 1.04421 6.83217 2.93866 7.41758-1.06134 6.79258ZM45.306 859.002 2.48763 876.135 14.4723 831.6Z" fill="#00B0F0" transform="matrix(1.83697e-16 1 1 -1.83697e-16 1816 1506)"/><rect x="361.5" y="1301.5" width="2503" height="315" stroke="#000000" stroke-width="4.58333" stroke-miterlimit="8" fill="none"/></g></svg>