<svg width="2467" height="359" xmlns="http://www.w3.org/2000/svg" xmlns:xlink="http://www.w3.org/1999/xlink" xml:space="preserve" overflow="hidden"><defs><clipPath id="clip0"><rect x="416" y="1444" width="2467" height="359"/></clipPath></defs><g clip-path="url(#clip0)" transform="translate(-416 -1444)"><path d="M416 1471.83C416 1456.46 428.462 1444 443.835 1444L2855.17 1444C2870.54 1444 2883 1456.46 2883 1471.83L2883 1583.17C2883 1598.54 2870.54 1611 2855.17 1611L443.835 1611C428.462 1611 416 1598.54 416 1583.17Z" fill="#FFFFFF" fill-rule="evenodd"/><rect x="435.5" y="1477.5" width="199" height="88" stroke="#A75F0A" stroke-width="4.58333" stroke-miterlimit="8" fill="#FF0000" fill-opacity="0.8"/><text font-family="Calibri,Calibri_MSFontService,sans-serif" font-weight="400" font-size="83" transform="matrix(1 0 0 1 467.829 1549)">180</text><rect x="653.5" y="1482.5" width="240" height="89" stroke="#A75F0A" stroke-width="4.58333" stroke-miterlimit="8" fill="#00B0F0" fill-opacity="0.8"/><text font-family="Calibri,Calibri_MSFontService,sans-serif" font-weight="400" font-size="83" transform="matrix(1 0 0 1 686.258 1554)">dead</text><rect x="1608.5" y="1482.5" width="435" height="89" stroke="#A75F0A" stroke-width="4.58333" stroke-miterlimit="8" fill="#00B0F0" fill-opacity="0.796078"/><text font-family="Calibri,Calibri_MSFontService,sans-serif" font-weight="400" font-size="83" transform="matrix(1 0 0 1 1640.95 1554)">wash away</text><rect x="2051.5" y="1485.5" width="325" height="89" stroke="#A75F0A" stroke-width="4.58333" stroke-miterlimit="8" fill="#00B050" fill-opacity="0.8"/><text font-family="Calibri,Calibri_MSFontService,sans-serif" font-weight="400" font-size="83" transform="matrix(1 0 0 1 2100.04 1557)">homes</text><rect x="2385.5" y="1485.5" width="157" height="89" stroke="#A75F0A" stroke-width="4.58333" stroke-miterlimit="8" fill="#7030A0" fill-opacity="0.8"/><text font-family="Calibri,Calibri_MSFontService,sans-serif" font-weight="400" font-size="83" transform="matrix(1 0 0 1 2432.12 1557)">in</text><rect x="2557.5" y="1487.5" width="276" height="88" stroke="#A75F0A" stroke-width="4.58333" stroke-miterlimit="8" fill="#F3B56C" fill-opacity="0.8"/><text font-family="Calibri,Calibri_MSFontService,sans-serif" font-weight="400" font-size="83" transform="matrix(1 0 0 1 2596.93 1559)">Nepal</text><rect x="987.5" y="1649.5" width="251" height="125" stroke="#A75F0A" stroke-width="4.58333" stroke-miterlimit="8" fill="#FF0000" fill-opacity="0.8"/><text font-family="Calibri,Calibri_MSFontService,sans-serif" font-weight="400" font-size="50" transform="matrix(1 0 0 1 1031.65 1728)">severity</text><rect x="1508.5" y="1649.5" width="251" height="124" stroke="#A75F0A" stroke-width="4.58333" stroke-miterlimit="8" fill="#00B050" fill-opacity="0.8"/><text font-family="Calibri,Calibri_MSFontService,sans-serif" font-weight="400" font-size="50" transform="matrix(1 0 0 1 1586.1 1698)">Item </text><text font-family="Calibri,Calibri_MSFontService,sans-serif" font-weight="400" font-size="50" transform="matrix(1 0 0 1 1548.56 1759)">affected</text><rect x="1246.5" y="1648.5" width="251" height="125" stroke="#A75F0A" stroke-width="4.58333" stroke-miterlimit="8" fill="#00B0F0" fill-opacity="0.8"/><text font-family="Calibri,Calibri_MSFontService,sans-serif" font-weight="400" font-size="48" transform="matrix(1 0 0 1 1304.58 1727)">impact</text><rect x="2036.5" y="1649.5" width="250" height="125" stroke="#A75F0A" stroke-width="4.58333" stroke-miterlimit="8" fill="#F3B56C" fill-opacity="0.8"/><text font-family="Calibri,Calibri_MSFontService,sans-serif" font-weight="400" font-size="50" transform="matrix(1 0 0 1 2107.08 1698)">Place </text><text font-family="Calibri,Calibri_MSFontService,sans-serif" font-weight="400" font-size="50" transform="matrix(1 0 0 1 2103.07 1759)">name</text><rect x="1773.5" y="1649.5" width="249" height="126" stroke="#A75F0A" stroke-width="4.58333" stroke-miterlimit="8" fill="#7030A0" fill-opacity="0.8"/><text font-family="Calibri,Calibri_MSFontService,sans-serif" font-weight="400" font-size="50" transform="matrix(1 0 0 1 1810.66 1698)">Location </text><text font-family="Calibri,Calibri_MSFontService,sans-serif" font-weight="400" font-size="50" transform="matrix(1 0 0 1 1810.39 1759)">modifier</text><rect x="899.5" y="1483.5" width="158" height="89" stroke="#A75F0A" stroke-width="4.58333" stroke-miterlimit="8" fill="#7030A0" fill-opacity="0.8"/><text font-family="Calibri,Calibri_MSFontService,sans-serif" font-weight="400" font-size="83" transform="matrix(1 0 0 1 946.765 1555)">in</text><rect x="1313" y="1484" width="367" height="84.9999" fill="#0D171F" fill-opacity="0"/><text font-family="Calibri,Calibri_MSFontService,sans-serif" font-weight="400" font-size="83" transform="matrix(1 0 0 1 1345.77 1554)">; floods</text><rect x="1066.5" y="1482.5" width="277" height="88" stroke="#A75F0A" stroke-width="4.58333" stroke-miterlimit="8" fill="#F3B56C" fill-opacity="0.8"/><text font-family="Calibri,Calibri_MSFontService,sans-serif" font-weight="400" font-size="83" transform="matrix(1 0 0 1 1121.48 1554)">India</text></g></svg>