<svg width="2457" height="534" xmlns="http://www.w3.org/2000/svg" xmlns:xlink="http://www.w3.org/1999/xlink" xml:space="preserve" overflow="hidden"><defs><clipPath id="clip0"><rect x="1149" y="249" width="2457" height="534"/></clipPath></defs><g clip-path="url(#clip0)" transform="translate(-1149 -249)"><path d="M1150.5 300.334C1150.5 272.812 1172.81 250.5 1200.33 250.5L3554.67 250.5C3582.19 250.5 3604.5 272.812 3604.5 300.334L3604.5 499.666C3604.5 527.189 3582.19 549.5 3554.67 549.5L1200.33 549.5C1172.81 549.5 1150.5 527.189 1150.5 499.666Z" stroke="#A75F0A" stroke-width="3.4375" stroke-linejoin="round" stroke-miterlimit="10" fill="#FFFFFF" fill-rule="evenodd"/><rect x="1172.5" y="354.5" width="199" height="88" stroke="#A75F0A" stroke-width="4.58333" stroke-miterlimit="8" fill="#FF0000" fill-opacity="0.8"/><text font-family="Calibri,Calibri_MSFontService,sans-serif" font-weight="400" font-size="83" transform="matrix(1 0 0 1 1205.26 425)">180</text><rect x="1391.5" y="355.5" width="239" height="89" stroke="#A75F0A" stroke-width="4.58333" stroke-miterlimit="8" fill="#00B0F0" fill-opacity="0.8"/><text font-family="Calibri,Calibri_MSFontService,sans-serif" font-weight="400" font-size="83" transform="matrix(1 0 0 1 1423.69 427)">dead</text><rect x="2342.5" y="355.5" width="435" height="89" stroke="#A75F0A" stroke-width="4.58333" stroke-miterlimit="8" fill="#00B0F0" fill-opacity="0.796078"/><text font-family="Calibri,Calibri_MSFontService,sans-serif" font-weight="400" font-size="83" transform="matrix(1 0 0 1 2374.91 427)">wash away</text><rect x="2791.5" y="357.5" width="325" height="89" stroke="#A75F0A" stroke-width="4.58333" stroke-miterlimit="8" fill="#00B050" fill-opacity="0.8"/><text font-family="Calibri,Calibri_MSFontService,sans-serif" font-weight="400" font-size="83" transform="matrix(1 0 0 1 2840.53 429)">homes</text><rect x="3130.5" y="356.5" width="157" height="89" stroke="#A75F0A" stroke-width="4.58333" stroke-miterlimit="8" fill="#7030A0" fill-opacity="0.8"/><text font-family="Calibri,Calibri_MSFontService,sans-serif" font-weight="400" font-size="83" transform="matrix(1 0 0 1 3177.57 428)">in</text><rect x="3297.5" y="359.5" width="277" height="88" stroke="#A75F0A" stroke-width="4.58333" stroke-miterlimit="8" fill="#F3B56C" fill-opacity="0.8"/><text font-family="Calibri,Calibri_MSFontService,sans-serif" font-weight="400" font-size="83" transform="matrix(1 0 0 1 3337.37 430)">Nepal</text><rect x="2046" y="357" width="367" height="84.9999" fill="#0D171F" fill-opacity="0"/><text font-family="Calibri,Calibri_MSFontService,sans-serif" font-weight="400" font-size="83" transform="matrix(1 0 0 1 2078.7 427)">; floods</text><rect x="1799.5" y="355.5" width="277" height="88" stroke="#A75F0A" stroke-width="4.58333" stroke-miterlimit="8" fill="#F3B56C" fill-opacity="0.8"/><text font-family="Calibri,Calibri_MSFontService,sans-serif" font-weight="400" font-size="83" transform="matrix(1 0 0 1 1854.4 426)">India</text><rect x="1638.5" y="354.5" width="157" height="89" stroke="#A75F0A" stroke-width="4.58333" stroke-miterlimit="8" fill="#7030A0" fill-opacity="0.8"/><text font-family="Calibri,Calibri_MSFontService,sans-serif" font-weight="400" font-size="83" transform="matrix(1 0 0 1 1685.37 426)">in</text><path d="M0.607493 6.84811-7.14251 7.53561-6.00573 7.33755-13.6307 9.33755-12.7048 9.02276-20.2673 12.2103-19.4299 11.7879-26.8049 16.1629-26.1416 15.7153-33.2666 21.1528-32.74 20.7074-39.5525 27.0824-39.1288 26.6493-45.5663 33.8368-45.1721 33.3544-51.1721 41.417-50.8856 41.0008-56.4481 49.7508-56.1929 49.3147-61.1929 58.6272-60.9791 58.193-65.4166 68.068-65.2264 67.5995-68.9764 77.912-68.8212 77.4306-71.8212 88.0556-71.696 87.5358-73.8835 98.4733-73.8025 97.973-75.1775 109.035-75.1319 108.494-75.6319 119.682-75.6319 119.068-75.1319 130.256-75.1775 129.715-73.8025 140.777-73.891 140.24-71.641 151.177-71.7689 150.658-68.7064 161.283-68.8641 160.804-65.0516 171.116-65.2291 170.682-60.7916 180.557-61.0223 180.091-55.9598 189.404-56.2169 188.97-50.5919 197.72-50.9006 197.279-44.7756 205.341-45.1729 204.864-38.6104 212.052-39.8307 210.996-26.778 219.842-34.4916 231.224-48.2168 221.923-55.5365 213.906-62.0124 205.382-67.9196 196.193-73.2269 186.43-77.8671 176.104-81.8486 165.334-85.0551 154.21-87.4139 142.743-88.856 131.141-89.3819 119.375-88.856 107.609-87.4162 96.0254-85.1265 84.5769-81.9851 73.4508-78.0621 62.6628-73.4217 52.3362-68.1875 42.5876-62.3538 33.4108-56.0167 24.8954-49.1689 17.2498-41.8829 10.4317-34.1648 4.54159-26.0409-0.277695-17.5935-3.83816-8.93422-6.10945-0.607493-6.84811ZM-29.0916 203.847 1.12238 238.691-44.8808 241.956Z" fill="#92D050" transform="matrix(1.83697e-16 1 1 -1.83697e-16 1272 354)"/><path d="M0.552641 6.85275-7.19736 7.47775-6.10833 7.30112-13.7333 9.17612-12.8857 8.90853-20.4482 11.846-19.6204 11.4593-26.9954 15.5218-26.3633 15.1276-33.4883 20.1276-32.9476 19.7064-39.7601 25.5814-39.2748 25.1198-45.7123 31.8698-45.3366 31.4417-51.3366 38.8792-51.0286 38.4667-56.5911 46.5292-56.3022 46.073-61.3022 54.698-61.0673 54.2567-65.5048 63.3817-65.2871 62.885-69.0371 72.4475-68.8594 71.9359-71.8594 81.8109-71.7194 81.273-73.9069 91.3354-73.811 90.7891-75.186 101.039-75.133 100.456-75.633 110.831-75.6331 110.167-75.1331 120.48-75.186 119.898-73.811 130.148-73.9137 129.571-71.6637 139.696-71.8085 139.151-68.746 149.026-68.9321 148.502-65.1196 158.002-65.3173 157.556-60.8798 166.681-61.1334 166.207-56.0709 174.832-56.3474 174.399-50.7224 182.524-51.068 182.067-44.943 189.505-45.32 189.083-38.82 195.771-40.1413 194.711-27.4023 202.567-34.6197 214.27-48.0851 205.966-55.3772 198.464-61.8643 190.587-67.799 182.014-73.1277 172.936-77.7895 163.35-81.7965 153.365-85.0251 142.954-87.4 132.267-88.8528 121.437-89.383 110.501-88.8529 99.5014-87.4021 88.6858-85.0965 78.0802-81.9369 67.6798-77.9889 57.6124-73.3233 48.0184-68.0623 38.9432-62.2001 30.4463-55.8594 22.5865-48.9938 15.3876-41.6676 9.06953-33.9563 3.65815-25.8536-0.805243-17.4491-4.06978-8.85426-6.18327-0.552641-6.85275ZM-29.9369 186.704 1.02313 220.887-44.8987 225.145Z" fill="#AB620E" transform="matrix(1.83697e-16 1 1 -1.83697e-16 1717 354)"/><path d="M0.552641 6.85275-7.19736 7.47775-6.05688 7.28825-13.6819 9.22575-12.7945 8.93482-20.357 11.9973-19.5815 11.6252-26.9565 15.7502-26.298 15.3312-33.423 20.4562-32.8671 20.0108-39.6796 26.0733-39.2316 25.6366-45.6691 32.5116-45.2846 32.0639-51.2846 39.6889-50.9738 39.261-56.5363 47.5735-56.2602 47.1245-61.2602 55.9996-61.036 55.5663-65.4735 64.9413-65.2655 64.4543-69.0155 74.2668-68.8458 73.7656-71.8458 83.8906-71.7104 83.3559-73.8979 93.7309-73.8082 93.2052-75.1832 103.705-75.1326 103.136-75.6326 113.761-75.6326 113.114-75.1326 123.739-75.1885 123.13-73.751 133.63-73.8522 133.067-71.5397 143.442-71.6808 142.91-68.5558 153.035-68.7306 152.537-64.8556 162.35-65.0682 161.867-60.5057 171.242-60.7521 170.781-55.5646 179.656-55.8459 179.214-50.0959 187.526-50.4329 187.079-44.1829 194.704-44.5719 194.269-37.8844 201.144-38.3345 200.721-31.272 206.783-33.2463 205.597-26.6023 208.195-31.6096 221.001-39.3416 217.977-47.5251 210.953-54.6318 203.647-61.2447 195.579-67.3032 186.821-72.7549 177.494-77.5474 167.646-81.6164 157.342-84.9004 146.702-87.3351 135.779-88.853 124.692-89.3826 113.438-88.854 102.204-87.4072 91.1552-85.1077 80.249-81.954 69.6055-78.0149 59.2982-73.3596 49.4631-68.1104 40.1457-62.254 31.3941-55.9078 23.329-49.0544 16.0099-41.7415 9.50208-34.0097 3.9406-25.9174-0.585573-17.5217-3.98549-8.88087-6.18112-0.552641-6.85275ZM-28.1901 192.877 3.01814 226.832-42.8715 231.426Z" fill="#AB620E" transform="matrix(1.83697e-16 1 1 -1.83697e-16 3209 356)"/><path d="M0.552641 6.85275-3.32236 7.16525-2.46415 7.04118-6.33915 7.85368-5.41755 7.59225-9.23005 8.96725-8.44778 8.62896-12.2603 10.5665-11.7399 10.2729-15.5524 12.6479-14.9479 12.2247-18.698 15.1622-18.2958 14.8215-21.9833 18.1965-21.6833 17.9047-25.3708 21.7172-25.0437 21.354-28.6062 25.604-28.4014 25.3474-31.9639 30.0349-31.7498 29.737-35.1873 34.7995-35.0337 34.5631-38.4087 40.0006-38.1988 39.6382-44.6363 51.5757-44.4197 51.1374-50.4197 64.4499-50.2758 64.106-55.8383 78.481-55.7095 78.1184-60.7095 93.5559-60.6161 93.2421-65.0536 109.555-64.9739 109.231-68.7239 126.231-68.6607 125.908-71.6607 143.47-71.6127 143.142-73.8002 161.142-73.7693 160.827-75.1443 179.14-75.1275 178.811-75.6275 197.311-75.6275 196.939-75.1275 215.376-75.1443 215.048-73.7693 233.36-73.8057 233.002-71.4932 251.064-71.5397 250.756-68.4772 268.319-68.5469 267.972-64.6719 284.972-64.7476 284.672-60.2476 300.984-60.3528 300.638-55.2278 316.013-55.3534 315.668-49.6659 330.105-49.8333 329.716-43.6457 342.966-43.8637 342.539-37.2387 354.476-37.4389 354.139-34.0014 359.576-34.1901 359.293-30.6276 364.356-31.7706 363.097-22.663 370.919-31.6219 381.35-41.3794 372.97-45.5328 367.067-49.1661 361.32-56.0027 349.001-62.3814 335.342-68.214 320.536-73.4544 304.815-78.0436 288.179-81.9924 270.855-85.1121 252.965-87.4672 234.569-88.868 215.913-89.3775 197.125-88.868 178.275-87.4689 159.64-85.2423 141.318-82.1866 123.43-78.3652 106.106-73.841 89.4749-68.7312 73.6985-63.0319 58.9701-56.8548 45.2646-50.2018 32.9274-46.6419 27.1921-43.0222 21.8612-39.2493 16.8968-35.4242 12.3336-31.4211 8.19484-27.3847 4.50045-23.1362 1.17249-18.7563-1.55598-14.2966-3.8224-9.63078-5.50515-4.86067-6.50533-0.552641-6.85275ZM-22.1609 354.973 2.11014 394.188-43.825 390.076Z" fill="#7F7F7F" transform="matrix(1.83697e-16 1 1 -1.83697e-16 2559 355)"/><path d="M1517.85 443.819 1518.17 447.694 1517.99 446.63 1518.93 450.505 1518.65 449.604 1520.15 453.417 1519.8 452.663 1521.86 456.475 1521.48 455.848 1524.1 459.66 1523.72 459.158 1526.84 462.908 1526.47 462.489 1530.09 466.177 1529.73 465.837 1533.92 469.524 1533.61 469.265 1538.17 472.828 1537.89 472.624 1542.96 476.187 1542.64 475.979 1548.14 479.417 1547.92 479.285 1553.8 482.66 1553.52 482.509 1559.83 485.759 1559.65 485.665 1566.33 488.853 1566.02 488.714 1580.4 494.714 1580.06 494.585 1595.63 500.148 1595.28 500.034 1612.03 505.034 1611.74 504.955 1629.37 509.392 1629.06 509.322 1647.5 513.072 1647.19 513.018 1666.26 516.018 1665.95 515.977 1685.45 518.164 1685.16 518.138 1704.98 519.513 1704.67 519.499 1724.67 519.999 1724.33 519.999 1744.33 519.499 1744.02 519.513 1763.84 518.138 1763.52 518.167 1783.02 515.917 1782.72 515.959 1801.78 512.896 1801.48 512.951 1819.92 509.139 1819.61 509.21 1837.24 504.71 1836.95 504.79 1853.7 499.728 1853.36 499.84 1868.98 494.215 1868.58 494.373 1882.9 488.186 1882.67 488.29 1889.35 485.103 1889.07 485.246 1895.38 481.871 1895.2 481.973 1901.08 478.598 1900.81 478.759 1906.31 475.259 1906 475.469 1911.06 471.844 1909.35 473.603 1913.25 467.805 1924.66 475.468 1920.08 482.299 1913.85 486.758 1908.06 490.443 1901.96 493.948 1895.41 497.447 1888.47 500.757 1873.84 507.08 1857.85 512.838 1840.78 517.996 1822.86 522.572 1804.12 526.448 1784.75 529.559 1764.94 531.844 1744.82 533.241 1724.5 533.749 1704.18 533.241 1684.07 531.845 1664.27 529.624 1644.91 526.577 1626.16 522.765 1608.24 518.252 1591.17 513.157 1575.27 507.473 1560.57 501.338 1553.63 498.032 1547.09 494.662 1540.96 491.144 1535.2 487.539 1529.84 483.771 1524.98 479.978 1520.46 475.993 1516.46 471.927 1512.95 467.718 1509.94 463.342 1507.51 458.839 1505.68 454.198 1504.5 449.338 1504.15 444.924ZM1897.97 465.955 1937.97 443 1932.33 488.773Z" fill="#00B0F0"/><path d="M1.06134-6.79258 6.05122-6.01291 11.575-3.38253 16.5852 0.53166 21.1901 5.42897 25.5019 11.4099 29.6428 18.3558 33.6468 26.1669 37.5324 34.9743 41.3826 44.7281 45.0862 55.3279 48.7108 66.7742 52.1955 79.0656 55.6043 92.0696 58.951 105.898 62.1035 120.4 65.1858 135.623 68.144 151.421 70.9095 167.825 73.6103 184.784 76.1229 202.309 78.5086 220.264 80.7066 238.665 82.7154 257.497 84.5365 276.65 87.6721 315.846 89.9307 356.061 91.3735 396.899 91.8755 438.125 91.3736 479.283 89.9937 520.116 87.7981 560.326 84.7876 599.525 82.9665 618.741 81.0215 637.501 78.8867 655.898 76.5637 673.917 74.1154 691.369 71.5406 708.325 68.8382 724.728 66.0059 740.526 62.9842 755.76 59.8981 770.246 56.6814 784.059 53.3955 797.076 49.9751 809.364 46.478 820.809 42.8461 831.386 39.0028 841.635 31.1375 854.107 19.507 846.773 26.9973 834.895 26.3752 836.148 29.9377 826.648 29.8727 826.83 33.4352 816.455 33.3626 816.678 36.8001 805.428 36.7518 805.594 40.1268 793.469 40.0841 793.63 43.3341 780.755 43.3042 780.878 46.4917 767.191 46.4634 767.317 49.5259 752.942 49.5064 753.037 52.5064 737.912 52.4829 738.037 55.2954 722.349 55.2789 722.445 57.9664 706.132 57.9529 706.218 60.5154 689.343 60.5042 689.42 62.9417 672.045 62.9314 672.121 65.2439 654.183 65.2333 654.27 67.3583 635.958 67.3492 636.041 69.2867 617.354 69.2807 617.414 71.0932 598.289 71.0827 598.411 74.0827 559.349 74.0727 559.5 76.2602 519.438 76.2539 519.58 77.6289 478.893 77.6255 479.041 78.1255 438.041 78.1255 438.209 77.6255 397.146 77.6293 397.305 76.1918 356.618 76.1983 356.76 73.9483 316.698 73.9594 316.861 70.8344 277.798 70.8434 277.901 69.0309 258.838 69.0388 258.917 67.0388 240.167 67.0485 240.253 64.861 221.94 64.8724 222.03 62.4974 204.155 62.5071 204.226 60.0071 186.788 60.0231 186.894 57.3356 170.019 57.3457 170.08 54.5957 153.768 54.6174 153.89 51.6799 138.203 51.6992 138.302 48.6367 123.177 48.6569 123.273 45.5319 108.898 45.5679 109.055 42.2554 95.3671 42.2872 95.4933 38.9122 82.6183 38.9482 82.7502 35.5107 70.6252 35.5708 70.8255 32.0083 59.5755 32.0723 59.7677 28.4473 49.3927 28.5427 49.6493 24.7927 40.1493 24.8974 40.4 21.1474 31.9 21.3195 32.2611 17.507 24.8236 17.7197 25.2079 13.8447 18.7079 14.1732 19.208 10.2982 13.833 10.8664 14.522 6.92893 10.3345 7.70495 11.0427 3.70495 7.91767 4.98171 8.70717 1.04421 6.83217 2.93866 7.41758-1.06134 6.79258ZM45.306 859.002 2.48763 876.135 14.4723 831.6Z" fill="#00B0F0" transform="matrix(1.83697e-16 1 1 -1.83697e-16 2559 444)"/><path d="M1638 605.168C1638 586.297 1653.3 571 1672.17 571L3159.83 571C3178.7 571 3194 586.297 3194 605.168L3194 741.832C3194 760.702 3178.7 776 3159.83 776L1672.17 776C1653.3 776 1638 760.702 1638 741.832Z" stroke="#313829" stroke-width="13.75" stroke-miterlimit="8" fill="#FFFFFF" fill-rule="evenodd"/><text font-family="Verdana,Verdana_MSFontService,sans-serif" font-weight="400" font-size="32" transform="matrix(1 0 0 1 1715.96 710)">place name </text><text font-family="Verdana,Verdana_MSFontService,sans-serif" font-weight="400" font-size="32" transform="matrix(1 0 0 1 1911.9 710)">-</text><text font-family="Verdana,Verdana_MSFontService,sans-serif" font-weight="400" font-size="32" transform="matrix(1 0 0 1 1937.68 710)">impact</text><text font-family="Verdana,Verdana_MSFontService,sans-serif" font-weight="400" font-size="32" transform="matrix(1 0 0 1 2077.79 713)">item affected </text><text font-family="Verdana,Verdana_MSFontService,sans-serif" font-weight="400" font-size="32" transform="matrix(1 0 0 1 2301.23 713)">-</text><text font-family="Verdana,Verdana_MSFontService,sans-serif" font-weight="400" font-size="32" transform="matrix(1 0 0 1 2327.01 713)">impact</text><text font-family="Verdana,Verdana_MSFontService,sans-serif" font-weight="400" font-size="32" transform="matrix(1 0 0 1 2479.97 714)">Severity </text><text font-family="Verdana,Verdana_MSFontService,sans-serif" font-weight="400" font-size="32" transform="matrix(1 0 0 1 2623.77 714)">-</text><text font-family="Verdana,Verdana_MSFontService,sans-serif" font-weight="400" font-size="32" transform="matrix(1 0 0 1 2649.55 714)">impact</text><text font-family="Verdana,Verdana_MSFontService,sans-serif" font-weight="400" font-size="32" transform="matrix(1 0 0 1 2873.34 713)">Place name  </text><text font-family="Verdana,Verdana_MSFontService,sans-serif" font-weight="400" font-size="32" transform="matrix(1 0 0 1 3080.16 713)">-</text><text font-family="Verdana,Verdana_MSFontService,sans-serif" font-weight="400" font-size="32" transform="matrix(1 0 0 1 2845.27 751)">Location modifier </text><path d="M2113 645.125 2341.85 645.125 2341.85 658.875 2113 658.875ZM2334.98 631.375 2376.23 652 2334.98 672.625Z" fill="#7F7F7F"/><path d="M1748 646.125 1976.85 646.125 1976.85 659.875 1748 659.875ZM1969.98 632.375 2011.23 653 1969.98 673.625Z" fill="#00B0F0"/><path d="M2486 643.125 2714.85 643.125 2714.85 656.875 2486 656.875ZM2707.98 629.375 2749.23 650 2707.98 670.625Z" fill="#92D050"/><path d="M2850 646.125 3078.85 646.125 3078.85 659.875 2850 659.875ZM3071.98 632.375 3113.23 653 3071.98 673.625Z" fill="#AB620E"/></g></svg>